<svg id="Layer_1" data-name="Layer 1" xmlns="http://www.w3.org/2000/svg" viewBox="0 0 41.83 58.26"><defs><style>.cls-1{fill:#fff;}.cls-2{fill:#f60;}</style></defs><title>Penguin RGB.20mm [Converted]</title><path class="cls-1" d="M20.93,58.26C14,58.27,8.39,55,4.7,48.83,1.68,43.77,0,36.83,0,29.3,0,24.41,1,0,20.87,0h0c8.35,0,14.57,4.49,18,13a45.89,45.89,0,0,1,2.92,16.14c0,13.43-5.42,29.11-20.86,29.14h0Z"/><path class="cls-2" d="M21,56.71C7,56.74,3.2,41.86,3.18,29.11c0-4.2-.72-27.66,17.63-27.69S38.64,25,38.65,29.16C38.68,41.91,35,56.68,21,56.71Z"/><path d="M30.2,22.69C28.55,20.07,26.25,17,26,13.79c-0.16-2,0-4.23-1.39-5.88a5,5,0,0,0-1.49-1.21,4.58,4.58,0,0,0-2-.5,6.43,6.43,0,0,0-1.85.28,14.55,14.55,0,0,1-2.14.57,6.19,6.19,0,0,1-2.36-.11l-1.13-.26a1.86,1.86,0,0,0-1.25,0c-0.56.56,0.63,1.23,1,1.49a21.11,21.11,0,0,1,1.83,1.39,6.11,6.11,0,0,1,2.09,3.19,5.2,5.2,0,0,1,.12,1.13c0.07,5.58-9.23,11.05-9.1,20.93,0,3.49,1.91,4.07,1.89,2.13A19,19,0,0,1,11.82,30c0.2-.49.82-0.64,0.68,0.21a35.3,35.3,0,0,0-.72,7.51,21.1,21.1,0,0,0,.2,2.76,15,15,0,0,0,.48,2.17,9.44,9.44,0,0,0,.7,1.73A7,7,0,0,0,14,45.59a6.58,6.58,0,0,0,1,.94,1.51,1.51,0,0,1,.57.6c0.15,0.4-.36.56-0.63,0.69s-0.56.28-.84,0.42-0.8.4-1.19,0.62-0.51.22-.74,0.37-0.35.4,0,.46a2.46,2.46,0,0,0,.51,0,2.08,2.08,0,0,1,.85.05,0.76,0.76,0,0,1,.36.83,0.41,0.41,0,0,0,.6.4,2.59,2.59,0,0,0,.94-0.64,3.57,3.57,0,0,1,.69-0.49,3.28,3.28,0,0,1,1.64-.14,1.24,1.24,0,0,0,1-.1,0.91,0.91,0,0,0,0-.95c-0.11-.26-0.23-0.51-0.36-0.77s-0.14-.22-0.19-0.34c-0.21-.49,1.48-0.85,1.73-0.92a14.77,14.77,0,0,1,2.53-.49,5.31,5.31,0,0,1,2.45.24,2,2,0,0,1,.81.64c0.12,0.15.4,0.61,0.15,0.79s-0.79.53-1.17,0.83a5,5,0,0,0-.67.61c-0.15.17-.19,0.48,0.12,0.46s0.82,0,1.23,0a1.52,1.52,0,0,1,.86.21,10,10,0,0,0,.94,1.08,0.58,0.58,0,0,0,.42,0,1.29,1.29,0,0,0,.59-0.64,1.61,1.61,0,0,1,.53-0.56,1,1,0,0,1,.48-0.11,8,8,0,0,1,.9,0,1.08,1.08,0,0,0,.77,0c0.4-.31-0.65-1-0.85-1.12a2.46,2.46,0,0,1-1.31-1.23,3.31,3.31,0,0,1,.48-2.1,21.34,21.34,0,0,0,1-2,10.41,10.41,0,0,0,.5-2c0.52-3.74-.34-7.71-1.43-11.28-0.13-.43-0.3-0.85-0.42-1.28-0.19-.67.46-0.83,0.8-0.17a36.16,36.16,0,0,1,3,7.64c0.39,1.9,1.82,2,1.78-1.4C34.31,29.83,32.46,26.29,30.2,22.69Z"/><path class="cls-1" d="M28.47,37.43c0.25,2.47.53,6.72-2.48,6.86-0.8,0-1.79-.52-3.26-0.42-2.51.17-3.25,1.13-5.3,0.76a3.24,3.24,0,0,1-2.53-2,12.31,12.31,0,0,1-.7-4.14,38,38,0,0,1,0-4.66c0.07-1.12.19-2.24,0.33-3.35,0.24-1.85.64-3.67,1.06-5.49A24.18,24.18,0,0,1,17,20.28a5.48,5.48,0,0,1,2.37-2.71,4.85,4.85,0,0,1,4.12,0c2.71,1.39,2.64,4.62,2.73,7.25a42,42,0,0,0,.68,6.09C27.34,33.08,28.24,35.18,28.47,37.43Z"/><path class="cls-1" d="M24.09,10.33a4.51,4.51,0,0,1-.38,4.26,3.64,3.64,0,0,1-2.14.71,23.34,23.34,0,0,0-2.32.48c-0.73.18-.69-0.6,0-1.16,1.06-.83,3.72-1.2,4.36-4.3C23.65,10.21,23.78,10,24.09,10.33Z"/><ellipse class="cls-1" cx="21.26" cy="9.46" rx="1.87" ry="1.61" transform="translate(1.74 22.14) rotate(-57)"/><ellipse cx="21.53" cy="9.75" rx="0.89" ry="0.71" transform="translate(1.34 22.04) rotate(-55.7)"/><path d="M21.53,9.75"/><path d="M20.87,0.75C1.56,0.79.74,24.87,0.75,29.29,0.77,42.71,6.24,57.54,21,57.51s20.13-15,20.11-28.39C41.07,24.7,40.17.71,20.87,0.75Zm0.11,56C7,56.74,3.2,41.86,3.18,29.11c0-4.2-.72-27.66,17.63-27.69S38.64,25,38.65,29.16C38.68,41.91,35,56.68,21,56.71Z"/></svg>