<?xml version="1.0" encoding="utf-8"?>
<!-- Generator: Adobe Illustrator 16.0.4, SVG Export Plug-In . SVG Version: 6.00 Build 0)  -->
<!DOCTYPE svg PUBLIC "-//W3C//DTD SVG 1.1//EN" "http://www.w3.org/Graphics/SVG/1.1/DTD/svg11.dtd">
<svg version="1.1" id="Layer_1" xmlns="http://www.w3.org/2000/svg" xmlns:xlink="http://www.w3.org/1999/xlink" x="0px" y="0px"
	 width="138.387px" height="195.158px" viewBox="0 0 138.387 195.158" enable-background="new 0 0 138.387 195.158"
	 xml:space="preserve">
<g>
	<g>
		<path fill="#2C2522" d="M135.063,94.841c-2.679-2.877-16.049-5.113-25.46-7.652c-4.89-1.32-9.331-3.351-12.287-5.125
			c0,0-4.79-3.023-9.525-2.922c0,0,1.27-7.199,4.796-13.484c1.765-3.146,4.938-6.889,7.474-9.953
			c4.479-4.687,4.028-17.204,3.178-28.588C101.81,8.013,99.01,3.024,97.524,7.022C96.474,9.856,95.866,22.7,95.866,22.7
			S91.32,8.442,89.822,8.709c-1.711,0.307-0.586,15.026,0.634,17.826c0.022,0.057-7.368-15.117-8.877-13.894
			c-1.512,1.223,1.832,12.859,2.996,16.572c0.02,0.062-9.229-10.667-10.546-9.403c-1.418,1.355,6.004,17.445,6.004,17.445
			s-8.483-7.092-9.402-5.908c-0.952,1.224,3.887,12.821,3.887,12.821s-6.012-4.226-6.431-2.428
			c-0.219,0.935,1.103,2.951,0.762,6.252c-0.28,2.73-1.168,3.773-1.168,3.773c-0.453-1.078-4.921-14.166-12.166-26.878
			C49.324,13.771,38.694-1.521,37.618,1.913c-0.707,2.258,5.143,16.87,5.143,16.87S33.594,7.838,32.201,8.737
			c-1.597,1.033,4.785,13.262,6.738,16.197c0.029,0.043-13.215-11.639-14.377-9.867c-0.909,1.388,8.314,12.754,10.289,15.009
			c0.063,0.073-12.049-6.985-13.299-5.485c-1.274,1.528,11.433,15.54,11.433,15.54s-9.451-3.787-10.145-2.357
			c-0.686,1.413,7.116,9.606,8.323,10.844c0,0-5.916-2.169-7.33-0.995c-0.771,0.635,3.773,4.949,4.987,7.298
			c8.409,14.725-3.316,39.273,1.136,50.397c2.322,5.797,8.432,10.267,10.866,12.229c-1.575,4.785-29.262-4.235-33.525,5.488
			c0,0,5.021-3.852,35.396,10.634c28.336,13.512,58.798,3.039,68.181-6.399c9.221-9.276,4.207-21.226-0.756-23.49
			c4.853,0.551,10.957-4.095,21.109-2.916c2.987,0.349,5.702,1.313,5.702,1.313C137.225,99.391,136.334,96.204,135.063,94.841z"/>
		<path fill="#2C2522" d="M41.875,132.297l-7.82-3.577c0,0-3.375,5.268-7.73,6.396c-4.357,1.132-17.498-3.378-18.734-1.44
			c-0.176,0.278,4.36,0.997,5.559,4.216c3.138,0.739,3.57,2.488,3.57,2.488c5.52,0.579,9.255-0.831,12.255-2.323
			C34.711,135.193,41.875,132.297,41.875,132.297z"/>
		<path fill="#2C2522" d="M54.263,134.938l-7.821-3.575c0,0-3.371,5.265-7.729,6.396c-4.357,1.135-14.971-2.521-16.204-0.581
			c-0.179,0.277,2.184,0.975,3.028,3.355c2.439,0.267,3.565,2.487,3.565,2.487c5.521,0.581,9.259-0.83,12.255-2.322
			C47.103,137.836,54.263,134.938,54.263,134.938z"/>
	</g>
	<g>
		<g>
			<path fill="#FAF8F6" d="M99.859,86.729c0,0,0.447,0.479,7.15,2.72c6.168,2.062,19.51,4.997,22.928,5.983
				c4.135,1.188,3.794,3.104,3.794,3.104s-0.718-0.465-2.469-0.863c-0.822-0.187-32.188-7.599-32.188-7.599l0.218-1.114l4.624,0.79
				l-4.273-2.033L99.859,86.729z"/>
			<path fill="#FAF8F6" d="M99.16,92.799c-0.562,0.364-1.149,2.104,0.047,4.001c1.389,2.211,7.422,5.328,16.119,2.806
				c7.903-2.293,11.185-0.458,11.167-1.005C126.471,98.051,99.16,92.799,99.16,92.799z"/>
		</g>
		<g>
			<g>
				<path fill="#FAF8F6" d="M106.333,104.63c-6.211-3.354-12.597-5.439-11.736-11.455c0.328-2.289,2.248-5.543,1.083-7.604
					c-3.182-5.613-15.929-3.961-16.698,3.911c-0.481,4.922,2.51,8.307,6.46,10.85c9.188,5.914,15.213,9.27,13.009,11.503
					c-1.547,2.166-12.062-4.639-15.14-6.459c-4.353-2.576-13.672-8.938-15.307-22.284c-4.055-33.023-14.894-51.248-15.74-50.658
					c-1.753,1.209,4.177,23.208,4.061,35.731c-0.188,20.1-13.651,39.624-13.651,39.624s2.427,4.146,10.821,9.738
					c-10.098,9.69-22.805,6.103-22.76,6.541c0.055,0.479,4.038,1.196,13.533,5.171c11.287,4.722,37.562,13.117,61.667-3.351
					C113.978,120.394,114.015,108.783,106.333,104.63z"/>
			</g>
			<path fill="#FAF8F6" d="M83.122,86.797l6.14-4.489c0,0-5.541-0.695-10.347,2.364c-1.562,0.989-4.015,3.204-3.321,3.624
				c0.49,0.299,2.657-0.771,2.772-0.479c0.098,0.249-2.376,2.51-1.536,3.091c0.819,0.57,5.125-3.123,5.125-3.123
				S83.222,86.744,83.122,86.797z"/>
		</g>
	</g>
</g>
<path fill="#2C2522" d="M89.437,87.229c0.145-1.053,0.816-1.954,2.121-1.866c1.193,0.08,1.84,1.139,1.773,2.242
	c-0.073,1.119-1.045,1.943-2.211,1.81C90.011,89.288,89.29,88.337,89.437,87.229z"/>
<path fill="#2C2522" d="M93.154,86.554c-1.435-2.988-6.299-0.727-5.984,0.026c0.386,0.928,1.782-0.534,3.725,0.191
	C93.234,87.646,93.154,86.554,93.154,86.554z"/>
<rect x="1.414" y="144.651" fill="none" width="1.36" height="1.244"/>
</svg>
